# xmcd CD database file
#
# Track frame offsets:
#	150
#	21240
#	37850
#	57905
#	74720
#	87245
#	100775
#	114275
#	131780
#	150480
#
# Disc length: 2196 seconds
#
# Revision: 1
# Processed by: cddbd v1.5.2PL0 Copyright (c) Steve Scherf et al.
# Submitted via: CDex 1.70beta2
#
DISCID=7d08920a
DTITLE=Vánoční country písničky 2 - Vánoční country písničky 2
DYEAR=1900
DGENRE=Country
TTITLE0=Ave Maria
TTITLE1=Na vánoce ráno
TTITLE2=První sníh
TTITLE3=Nad vodou svítá
TTITLE4=Tichá noc
TTITLE5=Rákosí
TTITLE6=Bílý sníh
TTITLE7=Sedmikráska
TTITLE8=Marion
TTITLE9=Když se láska vrací k nám
EXTD=
EXTT0=
EXTT1=
EXTT2=
EXTT3=
EXTT4=
EXTT5=
EXTT6=
EXTT7=
EXTT8=
EXTT9=
PLAYORDER=
